<?xml version="1.0"?>
<svg xmlns="http://www.w3.org/2000/svg" height="512px" version="1.1" viewBox="1 -105 511.99999 511" width="512px" class=""><g><g id="surface1">
<path d="M 362 0.5 C 343.363281 0.5 325.515625 3.925781 309.039062 10.164062 C 292.101562 3.753906 274.277344 0.5 256 0.5 C 237.363281 0.5 219.515625 3.925781 203.039062 10.164062 C 186.136719 3.769531 168.316406 0.515625 150.007812 0.5 C 149.960938 0.5 149.914062 0.5 149.867188 0.5 C 126.570312 0.5 104.386719 5.574219 83.929688 15.585938 C 78.96875 18.015625 76.914062 24.003906 79.34375 28.964844 C 81.078125 32.511719 84.632812 34.570312 88.332031 34.570312 C 89.808594 34.570312 91.308594 34.242188 92.71875 33.550781 C 110.417969 24.890625 129.640625 20.5 149.867188 20.5 C 149.90625 20.5 149.949219 20.5 149.992188 20.5 C 159.050781 20.507812 167.964844 21.433594 176.671875 23.25 C 134.265625 49.78125 106 96.898438 106 150.5 C 106 204.101562 134.269531 251.222656 176.675781 277.75 C 167.960938 279.574219 159.046875 280.5 150 280.5 C 78.316406 280.5 20 222.179688 20 150.5 C 20 124.09375 27.867188 98.675781 42.753906 77 C 45.878906 72.449219 44.722656 66.222656 40.171875 63.097656 C 35.617188 59.972656 29.394531 61.128906 26.265625 65.679688 C 9.082031 90.703125 0 120.03125 0 150.5 C 0 233.210938 67.289062 300.5 150 300.5 C 168.277344 300.5 186.097656 297.246094 203.039062 290.832031 C 219.515625 297.074219 237.363281 300.5 256 300.5 C 274.277344 300.5 292.101562 297.246094 309.039062 290.832031 C 325.515625 297.074219 343.363281 300.5 362 300.5 C 444.710938 300.5 512 233.210938 512 150.5 C 512 67.789062 444.710938 0.5 362 0.5 Z M 256 280.5 C 184.316406 280.5 126 222.179688 126 150.5 C 126 78.816406 184.316406 20.5 256 20.5 C 265.046875 20.5 273.960938 21.425781 282.675781 23.246094 C 240.269531 49.777344 212 96.894531 212 150.5 C 212 204.101562 240.269531 251.222656 282.675781 277.75 C 273.960938 279.574219 265.046875 280.5 256 280.5 Z M 362 280.5 C 290.316406 280.5 232 222.179688 232 150.5 C 232 78.816406 290.316406 20.5 362 20.5 C 433.683594 20.5 492 78.816406 492 150.5 C 492 222.179688 433.683594 280.5 362 280.5 Z M 362 280.5 " data-original="#000000" class="active-path" data-old_color="#000000" fill="#FFFFFF"/>
<path d="M 362 32.5 C 296.933594 32.5 244 85.433594 244 150.5 C 244 215.5625 296.933594 268.5 362 268.5 C 377.542969 268.5 392.707031 265.488281 407.070312 259.550781 C 412.175781 257.441406 414.601562 251.59375 412.496094 246.488281 C 410.382812 241.386719 404.539062 238.957031 399.429688 241.066406 C 387.5 245.996094 374.910156 248.496094 362 248.496094 C 307.960938 248.496094 264 204.535156 264 150.5 C 264 96.460938 307.960938 52.5 362 52.5 C 416.035156 52.5 460 96.460938 460 150.5 C 460 167.675781 455.460938 184.621094 446.871094 199.5 C 444.105469 204.28125 445.746094 210.398438 450.527344 213.160156 C 455.3125 215.921875 461.429688 214.28125 464.1875 209.5 C 474.53125 191.582031 480 171.183594 480 150.5 C 480 85.433594 427.066406 32.5 362 32.5 Z M 362 32.5 " data-original="#000000" class="active-path" data-old_color="#000000" fill="#FFFFFF"/>
<path d="M 54.082031 58.410156 C 56.550781 58.410156 59.023438 57.5 60.957031 55.671875 L 61.175781 55.464844 C 65.1875 51.667969 65.363281 45.339844 61.566406 41.328125 C 57.769531 37.316406 51.441406 37.140625 47.429688 40.9375 L 47.207031 41.144531 C 43.195312 44.941406 43.023438 51.273438 46.820312 55.28125 C 48.785156 57.363281 51.433594 58.410156 54.082031 58.410156 Z M 54.082031 58.410156 " data-original="#000000" class="active-path" data-old_color="#000000" fill="#FFFFFF"/>
<path d="M 430.855469 220.234375 L 430.691406 220.394531 C 426.75 224.265625 426.691406 230.597656 430.5625 234.535156 C 432.519531 236.53125 435.109375 237.53125 437.699219 237.53125 C 440.226562 237.53125 442.757812 236.574219 444.707031 234.664062 L 444.871094 234.503906 C 448.808594 230.632812 448.867188 224.300781 444.996094 220.359375 C 441.128906 216.421875 434.796875 216.363281 430.855469 220.234375 Z M 430.855469 220.234375 " data-original="#000000" class="active-path" data-old_color="#000000" fill="#FFFFFF"/>
</g></g> </svg>
